<svg width="265" height="46" fill="none" xmlns="http://www.w3.org/2000/svg"><path d="M61.08 24a.135.135 0 01-.12-.06.608.608 0 01-.02-.18c0-.16.047-.24.14-.24h.24c.507 0 .913-.113 1.22-.34.307-.227.46-.653.46-1.28V11.34c0-.627-.153-1.047-.46-1.26-.307-.227-.713-.34-1.22-.34h-.24a.135.135 0 01-.12-.06.608.608 0 01-.02-.18c0-.16.047-.24.14-.24l4.46-.02c1.507 0 2.547.007 3.12.02.88.013 1.693.16 2.44.44.747.28 1.34.687 1.78 1.22.453.52.68 1.127.68 1.82 0 .893-.373 1.62-1.12 2.18-.733.547-1.653.953-2.76 1.22 1.307.28 2.413.733 3.32 1.36.92.613 1.38 1.427 1.38 2.44 0 .827-.26 1.547-.78 2.16-.507.613-1.187 1.087-2.04 1.42-.853.32-1.78.48-2.78.48l-3.32.02-4.38-.02zm5.02-8.16c1.76 0 2.953-.287 3.58-.86.627-.573.94-1.347.94-2.32 0-.827-.28-1.5-.84-2.02-.547-.533-1.38-.8-2.5-.8-.587 0-1.007.1-1.26.3-.253.187-.38.507-.38.96v4.74h.46zm1.62 7.56c1.133 0 2.033-.293 2.7-.88.68-.587 1.02-1.453 1.02-2.6 0-1.067-.387-1.913-1.16-2.54-.76-.627-2.153-.94-4.18-.94h-.46v5.7c0 .48.127.813.38 1 .253.173.68.26 1.28.26h.42zm12.315.86c-.986 0-1.86-.24-2.62-.72a5.068 5.068 0 01-1.76-1.92 5.222 5.222 0 010-4.94 4.78 4.78 0 011.76-1.88c.76-.48 1.634-.72 2.62-.72.987 0 1.86.24 2.62.72a4.731 4.731 0 011.78 1.88 5.092 5.092 0 010 4.94 5.017 5.017 0 01-1.78 1.92c-.76.48-1.633.72-2.62.72zm0-.54c.814 0 1.447-.44 1.9-1.32.467-.893.7-1.973.7-3.24 0-1.293-.226-2.367-.68-3.22-.453-.867-1.093-1.3-1.92-1.3-.8 0-1.426.433-1.88 1.3-.453.867-.68 1.94-.68 3.22 0 1.267.227 2.347.68 3.24.454.88 1.08 1.32 1.88 1.32zm12.32-9.66c.532 0 .966.147 1.3.44.332.293.5.633.5 1.02 0 .307-.108.56-.32.76-.2.2-.454.3-.76.3-.2 0-.38-.04-.54-.12a6.036 6.036 0 01-.54-.4 3.715 3.715 0 00-.5-.34.948.948 0 00-.46-.12c-.32 0-.62.16-.9.48-.28.307-.54.72-.78 1.24v5.24c0 .4.1.66.3.78.2.12.486.18.86.18h.24c.092 0 .14.08.14.24 0 .16-.048.24-.14.24h-5.06c-.094 0-.14-.08-.14-.24 0-.16.046-.24.14-.24h.2c.372 0 .66-.06.86-.18.2-.12.3-.38.3-.78v-6.18c0-.413-.1-.687-.3-.82-.2-.133-.534-.213-1-.24-.12-.013-.18-.12-.18-.32 0-.08.04-.127.12-.14.132-.053 1.352-.313 3.66-.78v2.26c.386-.693.84-1.247 1.36-1.66.532-.413 1.08-.62 1.64-.62zm6.715 10.2c-.986 0-1.86-.24-2.62-.72a5.068 5.068 0 01-1.76-1.92 5.22 5.22 0 010-4.94 4.78 4.78 0 011.76-1.88c.76-.48 1.634-.72 2.62-.72.987 0 1.86.24 2.62.72a4.724 4.724 0 011.78 1.88 5.088 5.088 0 010 4.94 5.009 5.009 0 01-1.78 1.92c-.76.48-1.633.72-2.62.72zm0-.54c.814 0 1.447-.44 1.9-1.32.467-.893.7-1.973.7-3.24 0-1.293-.226-2.367-.68-3.22-.453-.867-1.093-1.3-1.92-1.3-.8 0-1.426.433-1.88 1.3-.453.867-.68 1.94-.68 3.22 0 1.267.227 2.347.68 3.24.454.88 1.08 1.32 1.88 1.32zm21.119-9.42c.094 0 .14.073.14.22 0 .093-.02.153-.06.18a.806.806 0 01-.24.08c-.333.04-.653.187-.96.44a2.736 2.736 0 00-.74 1c-.173.387-1.16 3.067-2.96 8.04h-1.22l-2.22-6.18-2.36 6.18h-1.18l-3.1-8.42c-.333-.707-.82-1.06-1.46-1.06-.053-.013-.086-.04-.1-.08a.333.333 0 01-.04-.18c0-.147.047-.22.14-.22h4.9c.094 0 .14.073.14.22 0 .173-.053.26-.16.26-.306 0-.553.053-.74.16a.463.463 0 00-.28.44c0 .12.02.253.06.4l2.02 6.04 1.78-4.76-.5-1.4c-.16-.347-.373-.58-.64-.7a1.801 1.801 0 00-.78-.18.196.196 0 01-.12-.08.618.618 0 01-.02-.18c0-.147.047-.22.14-.22h4.9c.094 0 .14.073.14.22 0 .173-.053.26-.16.26-.293 0-.54.047-.74.14a.463.463 0 00-.28.44c0 .08.027.2.08.36l2 6.08c.347-.933.72-1.987 1.12-3.16.414-1.187.707-2.04.88-2.56.054-.16.08-.28.08-.36 0-.56-.5-.88-1.5-.96-.093-.013-.14-.093-.14-.24s.047-.22.14-.22h4.04zm10.385 7.94c.106 0 .16.047.16.14l-.02.12c-.16.507-.46.92-.9 1.24-.427.32-.874.48-1.34.48-.96 0-1.58-.447-1.86-1.34-.52.453-1.1.8-1.74 1.04-.64.24-1.274.36-1.9.36-.827 0-1.474-.187-1.94-.56-.467-.387-.7-.927-.7-1.62 0-1.013.553-1.82 1.66-2.42a4.53 4.53 0 011.04-.38c.386-.107.906-.227 1.56-.36.2-.04.486-.1.86-.18.386-.093.726-.18 1.02-.26v-.9c0-.76-.027-1.3-.08-1.62-.04-.333-.147-.607-.32-.82-.254-.333-.647-.5-1.18-.5-.36 0-.667.113-.92.34-.254.213-.46.633-.62 1.26-.12.453-.3.793-.54 1.02a1.13 1.13 0 01-.8.32c-.307 0-.58-.087-.82-.26-.24-.187-.36-.447-.36-.78 0-.253.1-.567.3-.94.213-.387.62-.74 1.22-1.06.6-.32 1.446-.48 2.54-.48.8 0 1.473.107 2.02.32.546.213.973.5 1.28.86.24.267.4.56.48.88.08.32.12.713.12 1.18 0 .907-.007 1.6-.02 2.08l-.02 2.24c0 .573.066.947.2 1.12.146.173.32.26.52.26.16 0 .326-.053.5-.16.173-.12.326-.293.46-.52.04-.067.086-.1.14-.1zm-6.26.94c.36 0 .726-.073 1.1-.22.386-.147.74-.36 1.06-.64a7.106 7.106 0 01-.06-.92l.04-2.34c-1.28.32-2.22.713-2.82 1.18-.6.453-.9 1.02-.9 1.7 0 .36.14.66.42.9.28.227.666.34 1.16.34zm17.686.34c.107 0 .16.08.16.24 0 .16-.053.24-.16.24h-5.04c-.093 0-.14-.08-.14-.24 0-.16.047-.24.14-.24h.24c.373 0 .653-.06.84-.18.2-.12.3-.38.3-.78l.02-3.52c0-.64-.013-1.2-.04-1.68-.027-.693-.167-1.247-.42-1.66-.253-.413-.687-.62-1.3-.62-.44 0-.86.147-1.26.44-.4.293-.753.707-1.06 1.24v5.8c0 .4.1.66.3.78.2.12.487.18.86.18h.24c.093 0 .14.08.14.24 0 .16-.047.24-.14.24h-5.06c-.107 0-.16-.08-.16-.24 0-.16.053-.24.16-.24h.2c.387 0 .68-.06.88-.18.2-.12.3-.38.3-.78l-.02-6.16c0-.413-.107-.687-.32-.82-.2-.147-.527-.233-.98-.26-.12-.013-.18-.12-.18-.32 0-.08.04-.127.12-.14.133-.053 1.353-.313 3.66-.78v1.78c.373-.547.82-.98 1.34-1.3.52-.32 1.093-.48 1.72-.48.72 0 1.327.147 1.82.44.493.293.86.673 1.1 1.14.24.467.367.96.38 1.48v5.42c0 .4.1.66.3.78.2.12.487.18.86.18h.2zm20.569-1.6c.067 0 .127.027.18.08.067.053.1.107.1.16 0 .04-.027.093-.08.16-.987 1.307-2.207 1.96-3.66 1.96-1.04 0-2.02-.327-2.94-.98-1.173.64-2.553.96-4.14.96-1.04 0-1.92-.16-2.64-.48-.707-.333-1.24-.773-1.6-1.32a3.292 3.292 0 01-.52-1.8c0-.987.347-1.827 1.04-2.52.707-.707 1.7-1.393 2.98-2.06-.507-1.24-.76-2.313-.76-3.22a4 4 0 01.46-1.92 3.512 3.512 0 011.34-1.38c.573-.333 1.227-.5 1.96-.5.667 0 1.287.113 1.86.34.587.213 1.053.527 1.4.94.347.413.52.887.52 1.42 0 .747-.347 1.407-1.04 1.98-.68.56-1.667 1.147-2.96 1.76l.92 1.78c.8 1.533 1.673 2.847 2.62 3.94a6.421 6.421 0 001.14-1.82c.28-.667.42-1.267.42-1.8 0-.52-.16-.913-.48-1.18-.32-.267-.78-.4-1.38-.4-.107 0-.16-.087-.16-.26 0-.16.053-.24.16-.24h5.02c.093 0 .14.08.14.24 0 .173-.047.26-.14.26-.533 0-1 .14-1.4.42-.387.267-.653.72-.8 1.36-.36 1.587-1.027 2.907-2 3.96.88.88 1.62 1.32 2.22 1.32a2.08 2.08 0 001.04-.26c.32-.187.647-.453.98-.8.067-.067.133-.1.2-.1zm-8.1-12.18c-.493 0-.887.193-1.18.58-.293.387-.44.873-.44 1.46 0 .693.3 1.7.9 3.02.84-.493 1.453-.98 1.84-1.46.4-.493.6-1.047.6-1.66 0-.56-.147-1.02-.44-1.38-.28-.373-.707-.56-1.28-.56zm-1.06 13.34c.693 0 1.367-.12 2.02-.36-1.067-.947-2.073-2.36-3.02-4.24l-.24-.5-.58-1.22c-.653.4-1.113.827-1.38 1.28-.267.453-.4.98-.4 1.58 0 .667.153 1.267.46 1.8.307.52.733.927 1.28 1.22.547.293 1.167.44 1.86.44zm29.513.44c.094 0 .14.073.14.22 0 .173-.046.26-.14.26h-4.5c-.48-.947-1.126-2.153-1.94-3.62-.813-1.48-1.513-2.627-2.1-3.44h-1.4v4.96c0 .627.154 1.053.46 1.28.32.227.727.34 1.22.34h.24c.094 0 .14.073.14.22 0 .173-.046.26-.14.26h-6.42c-.093 0-.14-.087-.14-.26 0-.147.047-.22.14-.22h.26c.494 0 .894-.113 1.2-.34.32-.227.48-.653.48-1.28V11.36c0-.627-.16-1.047-.48-1.26-.306-.227-.706-.34-1.2-.34h-.26c-.093 0-.14-.087-.14-.26 0-.16.047-.24.14-.24 1.707-.027 3.34-.04 4.9-.04l2.4.02a7.317 7.317 0 012.5.5c.787.307 1.414.747 1.88 1.32.48.56.72 1.22.72 1.98 0 .92-.36 1.673-1.08 2.26-.72.573-1.633 1-2.74 1.28.307.4.894 1.32 1.76 2.76.88 1.48 1.507 2.48 1.88 3 .214.32.387.553.52.7.147.147.347.267.6.36.267.08.634.12 1.1.12zm-9.94-7.14h.6c2.987 0 4.48-1.147 4.48-3.44 0-.587-.14-1.113-.42-1.58a2.87 2.87 0 00-1.2-1.12c-.506-.267-1.1-.4-1.78-.4-.533 0-.946.093-1.24.28-.293.187-.44.513-.44.98v5.28zm15.12 7.88c-.987 0-1.86-.24-2.62-.72a5.065 5.065 0 01-1.76-1.92 5.214 5.214 0 01-.62-2.46c0-.88.206-1.707.62-2.48.413-.787 1-1.413 1.76-1.88.76-.48 1.633-.72 2.62-.72.986 0 1.86.24 2.62.72a4.738 4.738 0 011.78 1.88c.426.773.64 1.6.64 2.48a5.1 5.1 0 01-.64 2.46 5.024 5.024 0 01-1.78 1.92c-.76.48-1.634.72-2.62.72zm0-.54c.813 0 1.446-.44 1.9-1.32.466-.893.7-1.973.7-3.24 0-1.293-.227-2.367-.68-3.22-.454-.867-1.094-1.3-1.92-1.3-.8 0-1.427.433-1.88 1.3-.454.867-.68 1.94-.68 3.22 0 1.267.226 2.347.68 3.24.453.88 1.08 1.32 1.88 1.32zm12.458-9.64c.76 0 1.46.22 2.1.66.64.427 1.14 1.02 1.5 1.78.374.747.56 1.593.56 2.54 0 .973-.18 1.86-.54 2.66-.36.787-.86 1.407-1.5 1.86a3.56 3.56 0 01-2.14.68c-1.146 0-2.166-.407-3.06-1.22v4.1c0 .4.1.66.3.78.2.12.487.18.86.18h.2c.094 0 .14.073.14.22 0 .173-.046.26-.14.26h-5.06c-.093 0-.14-.087-.14-.26 0-.147.047-.22.14-.22h.22c.387 0 .68-.06.88-.18.2-.12.3-.38.3-.78l-.04-10.72c0-.427-.1-.707-.3-.84-.186-.133-.513-.213-.98-.24-.12-.013-.18-.12-.18-.32 0-.093.04-.147.12-.16l3.68-.78v1.24c.374-.36.82-.653 1.34-.88.52-.24 1.1-.36 1.74-.36zm-.82 9.3c.4 0 .794-.16 1.18-.48.387-.333.7-.833.94-1.5.254-.667.38-1.473.38-2.42 0-.827-.106-1.54-.32-2.14-.213-.613-.513-1.08-.9-1.4-.373-.333-.793-.5-1.26-.5-.36 0-.753.107-1.18.32-.413.2-.78.467-1.1.8v6.22c.334.333.7.6 1.1.8.414.2.8.3 1.16.3zm12.399-9.3c.76 0 1.46.22 2.1.66.64.427 1.14 1.02 1.5 1.78.373.747.56 1.593.56 2.54 0 .973-.18 1.86-.54 2.66-.36.787-.86 1.407-1.5 1.86a3.56 3.56 0 01-2.14.68c-1.147 0-2.167-.407-3.06-1.22v4.1c0 .4.1.66.3.78.2.12.486.18.86.18h.2c.093 0 .14.073.14.22 0 .173-.047.26-.14.26h-5.06c-.094 0-.14-.087-.14-.26 0-.147.046-.22.14-.22h.22c.386 0 .68-.06.88-.18.2-.12.3-.38.3-.78l-.04-10.72c0-.427-.1-.707-.3-.84-.187-.133-.514-.213-.98-.24-.12-.013-.18-.12-.18-.32 0-.093.04-.147.12-.16l3.68-.78v1.24c.373-.36.82-.653 1.34-.88.52-.24 1.1-.36 1.74-.36zm-.82 9.3c.4 0 .793-.16 1.18-.48.386-.333.7-.833.94-1.5.253-.667.38-1.473.38-2.42 0-.827-.107-1.54-.32-2.14-.214-.613-.514-1.08-.9-1.4-.374-.333-.794-.5-1.26-.5-.36 0-.754.107-1.18.32-.414.2-.78.467-1.1.8v6.22c.333.333.7.6 1.1.8.413.2.8.3 1.16.3zm15.958-1.14c.106 0 .16.047.16.14l-.02.12c-.16.507-.46.92-.9 1.24-.427.32-.874.48-1.34.48-.96 0-1.58-.447-1.86-1.34-.52.453-1.1.8-1.74 1.04-.64.24-1.274.36-1.9.36-.827 0-1.474-.187-1.94-.56-.467-.387-.7-.927-.7-1.62 0-1.013.553-1.82 1.66-2.42a4.53 4.53 0 011.04-.38c.386-.107.906-.227 1.56-.36.2-.04.486-.1.86-.18.386-.093.726-.18 1.02-.26v-.9c0-.76-.027-1.3-.08-1.62-.04-.333-.147-.607-.32-.82-.254-.333-.647-.5-1.18-.5-.36 0-.667.113-.92.34-.254.213-.46.633-.62 1.26-.12.453-.3.793-.54 1.02a1.13 1.13 0 01-.8.32c-.307 0-.58-.087-.82-.26-.24-.187-.36-.447-.36-.78 0-.253.1-.567.3-.94.213-.387.62-.74 1.22-1.06.6-.32 1.446-.48 2.54-.48.8 0 1.473.107 2.02.32.546.213.973.5 1.28.86.24.267.4.56.48.88.08.32.12.713.12 1.18 0 .907-.007 1.6-.02 2.08l-.02 2.24c0 .573.066.947.2 1.12.146.173.32.26.52.26.16 0 .326-.053.5-.16.173-.12.326-.293.46-.52.04-.067.086-.1.14-.1zm-6.26.94c.36 0 .726-.073 1.1-.22.386-.147.74-.36 1.06-.64a7.106 7.106 0 01-.06-.92l.04-2.34c-1.28.32-2.22.713-2.82 1.18-.6.453-.9 1.02-.9 1.7 0 .36.14.66.42.9.28.227.666.34 1.16.34zm10.226 1.08c-.867 0-1.527-.247-1.98-.74-.453-.493-.693-1.213-.72-2.16v-6.38h-1.74v-.68c.947-.213 1.727-.62 2.34-1.22.627-.613 1.06-1.573 1.3-2.88h.4v4.1h2.54v.68h-2.54l-.04 4.62.02 1.66c.067 1.24.533 1.86 1.4 1.86.28 0 .52-.053.72-.16.2-.107.427-.293.68-.56.067-.08.127-.12.18-.12.053 0 .107.033.16.1.067.053.1.107.1.16a.301.301 0 01-.04.12c-.373.573-.787.987-1.24 1.24a3.24 3.24 0 01-1.54.36zm2.779-3.26l-.02-.1c0-.107.053-.18.16-.22a.281.281 0 01.12-.02c.093 0 .167.047.22.14 1.187 1.88 2.613 2.82 4.28 2.82.613 0 1.073-.147 1.38-.44.32-.293.48-.667.48-1.12 0-.293-.093-.567-.28-.82a1.89 1.89 0 00-.78-.6c-.333-.147-.933-.347-1.8-.6-.08-.027-.32-.1-.72-.22-.4-.12-.713-.24-.94-.36-.547-.267-.973-.607-1.28-1.02-.307-.413-.46-.9-.46-1.46 0-.467.12-.92.36-1.36.253-.453.62-.82 1.1-1.1.48-.293 1.053-.44 1.72-.44.387 0 .727.033 1.02.1.307.053.68.14 1.12.26.307.093.493.14.56.14.2 0 .393-.06.58-.18.2-.133.353-.3.46-.5l.88 2.96.02.12c0 .08-.053.147-.16.2a.355.355 0 01-.16.04c-.08 0-.147-.04-.2-.12a5.376 5.376 0 00-1.94-1.78c-.773-.413-1.493-.62-2.16-.62-.587 0-1.013.147-1.28.44-.253.293-.38.593-.38.9 0 .253.087.48.26.68.187.2.48.4.88.6.253.12.747.293 1.48.52.973.307 1.673.56 2.1.76.573.28 1.027.64 1.36 1.08.347.44.52.96.52 1.56 0 .933-.34 1.673-1.02 2.22-.667.533-1.54.8-2.62.8-.373 0-.727-.033-1.06-.1-.333-.067-.727-.16-1.18-.28-.413-.12-.673-.18-.78-.18a.918.918 0 00-.52.16c-.16.107-.327.26-.5.46l-.82-3.32zm13.916 3.26a5.18 5.18 0 01-2.38-.58 4.74 4.74 0 01-1.86-1.7c-.48-.76-.72-1.667-.72-2.72 0-.813.194-1.62.58-2.42.4-.8.98-1.46 1.74-1.98s1.667-.78 2.72-.78c.907 0 1.654.133 2.24.4.587.253 1.014.567 1.28.94.267.36.4.693.4 1 0 .32-.106.587-.32.8a.931.931 0 01-.7.32c-.333 0-.606-.1-.82-.3-.213-.213-.426-.513-.64-.9-.266-.547-.526-.96-.78-1.24-.253-.28-.56-.42-.92-.42-.44 0-.833.187-1.18.56-.333.373-.6.9-.8 1.58-.186.68-.28 1.46-.28 2.34 0 .96.14 1.753.42 2.38.294.627.66 1.08 1.1 1.36a2.7 2.7 0 001.44.42c1.267 0 2.274-.533 3.02-1.6.054-.067.107-.1.16-.1a.28.28 0 01.16.04c.094.04.14.1.14.18 0 .053-.013.093-.04.12-.36.653-.88 1.2-1.56 1.64-.666.44-1.466.66-2.4.66zm16.048-.74c.093 0 .14.08.14.24 0 .16-.047.24-.14.24h-5.04c-.107 0-.16-.08-.16-.24 0-.16.053-.24.16-.24h.2c.373 0 .66-.06.86-.18.2-.12.3-.38.3-.78.026-1.307.04-2.44.04-3.4 0-.693-.014-1.293-.04-1.8-.054-.707-.207-1.26-.46-1.66-.24-.413-.66-.62-1.26-.62-.44 0-.86.147-1.26.44-.4.28-.754.687-1.06 1.22v5.82c0 .4.1.66.3.78.2.12.486.18.86.18h.22c.106 0 .16.08.16.24 0 .16-.054.24-.16.24h-5.06c-.107 0-.16-.08-.16-.24 0-.16.053-.24.16-.24h.22c.373 0 .66-.06.86-.18.2-.12.3-.38.3-.78l-.02-11.2c0-.413-.1-.687-.3-.82-.187-.133-.514-.22-.98-.26a.19.19 0 01-.14-.06.213.213 0 01-.04-.12v-.12c0-.08.04-.127.12-.14.12-.053 1.34-.313 3.66-.78v6.8c.386-.547.833-.98 1.34-1.3.52-.32 1.093-.48 1.72-.48.72 0 1.32.147 1.8.44.48.293.84.68 1.08 1.16.24.467.366.96.38 1.48v5.4c0 .4.1.66.3.78.213.12.506.18.88.18h.22z" fill="#fff"/><g filter="url(#filter0_d)" clip-path="url(#clip0)"><path d="M35.129 44.563a4.043 4.043 0 00-4.043-4.044H14.914a4.043 4.043 0 00-4.043 4.044V46H35.13v-1.438z" fill="url(#paint0_linear)"/><path d="M43.305 10.871V8.176h-16.51a4.037 4.037 0 00-2.447-2.447V0h-2.696v5.729a4.037 4.037 0 00-2.447 2.447H2.695v2.695h3.37L0 25.695a6.746 6.746 0 006.738 6.739h2.696a6.746 6.746 0 006.738-6.739L10.08 10.871h9.125a4.038 4.038 0 002.447 2.447v19.263a6.75 6.75 0 00-5.254 5.243h13.204a6.75 6.75 0 00-5.254-5.243V13.318a4.038 4.038 0 002.447-2.447h9.098l-6.065 14.824a6.746 6.746 0 006.738 6.739h2.696A6.746 6.746 0 0046 25.695l-6.092-14.824h3.397zM12.802 24.348H3.37l4.716-11.321 4.716 11.32zm29.828 0h-9.432l4.716-11.321 4.716 11.32z" fill="url(#paint1_linear)"/></g><path d="M62.174 39.438V43h-.996v-8.566h2.35c1.05 0 1.825.2 2.325.603.504.403.756 1.008.756 1.816 0 1.133-.574 1.899-1.722 2.297L67.213 43h-1.178l-2.074-3.563h-1.787zm0-.856h1.365c.703 0 1.219-.139 1.547-.416.328-.281.492-.701.492-1.26 0-.566-.168-.974-.504-1.224-.332-.25-.867-.375-1.605-.375h-1.295v3.275zm10.188 4.535c-.95 0-1.7-.289-2.25-.867-.547-.578-.82-1.38-.82-2.408 0-1.035.254-1.858.761-2.467.512-.61 1.198-.914 2.057-.914.805 0 1.442.266 1.91.797.47.527.703 1.224.703 2.092v.615H70.3c.02.754.209 1.326.568 1.717.363.39.873.586 1.53.586.69 0 1.374-.145 2.05-.434v.867c-.344.149-.67.254-.978.317-.305.066-.674.1-1.108.1zm-.264-5.842c-.515 0-.927.168-1.236.504-.305.336-.484.801-.539 1.395h3.358c0-.614-.137-1.082-.41-1.406-.274-.328-.665-.493-1.173-.493zm8.056 5.842c-.93 0-1.65-.285-2.162-.855-.508-.575-.762-1.385-.762-2.432 0-1.074.258-1.904.773-2.49.52-.586 1.258-.88 2.215-.88.309 0 .617.034.926.1.309.067.55.145.727.235l-.3.826a4.363 4.363 0 00-.702-.21 3.04 3.04 0 00-.674-.089c-1.305 0-1.957.832-1.957 2.496 0 .79.158 1.395.475 1.817.32.422.793.633 1.418.633.535 0 1.084-.116 1.646-.346v.861c-.43.223-.97.334-1.623.334zM88.9 43v-4.154c0-.524-.12-.914-.358-1.172-.238-.258-.611-.387-1.119-.387-.676 0-1.17.184-1.482.55-.309.368-.463.97-.463 1.806V43h-.973v-9.117h.973v2.76c0 .332-.016.607-.047.826h.059c.191-.309.463-.551.814-.727.355-.18.76-.27 1.213-.27.785 0 1.373.188 1.764.563.394.371.591.963.591 1.776V43H88.9zm6.25-.685c.172 0 .339-.012.499-.036.16-.027.287-.054.38-.082v.744a1.697 1.697 0 01-.468.123 3.263 3.263 0 01-.551.053c-1.242 0-1.863-.654-1.863-1.963v-3.82h-.92v-.469l.92-.404.41-1.371h.562v1.488h1.864v.756H94.12v3.78c0 .386.092.683.276.89.183.207.435.31.756.31zm7.511-1.067c0 .598-.223 1.059-.668 1.383-.445.324-1.07.486-1.875.486-.851 0-1.516-.135-1.992-.404v-.903c.309.157.639.28.99.37.356.09.697.135 1.026.135.507 0 .898-.08 1.171-.24.274-.165.411-.413.411-.745 0-.25-.11-.463-.329-.639-.214-.18-.636-.39-1.265-.632-.598-.223-1.024-.416-1.278-.58a1.808 1.808 0 01-.562-.569 1.494 1.494 0 01-.182-.756c0-.523.213-.935.639-1.236.426-.305 1.01-.457 1.752-.457.691 0 1.367.14 2.027.422l-.345.79c-.645-.265-1.229-.398-1.752-.398-.461 0-.809.073-1.043.217-.235.145-.352.344-.352.598a.74.74 0 00.13.44c.089.12.231.236.427.345.195.11.57.268 1.125.475.762.277 1.275.556 1.541.837.269.282.404.635.404 1.061zM109.399 43l-.193-.914h-.047c-.32.402-.641.676-.961.82-.316.14-.713.211-1.189.211-.637 0-1.137-.164-1.5-.492-.36-.328-.539-.795-.539-1.4 0-1.297 1.037-1.977 3.111-2.04l1.09-.035v-.398c0-.504-.11-.875-.328-1.113-.215-.242-.561-.364-1.038-.364-.535 0-1.14.165-1.816.493l-.299-.745a4.598 4.598 0 011.037-.404 4.543 4.543 0 011.137-.146c.766 0 1.332.17 1.699.51.371.34.557.884.557 1.634V43h-.721zm-2.197-.685c.605 0 1.08-.167 1.424-.499.347-.332.521-.797.521-1.394v-.58l-.972.04c-.774.028-1.332.15-1.676.364-.34.211-.51.541-.51.99 0 .352.106.62.316.803.215.184.514.276.897.276zm10.522.685v-4.154c0-.524-.119-.914-.357-1.172-.238-.258-.612-.387-1.119-.387-.672 0-1.164.182-1.477.545-.312.363-.469.963-.469 1.799V43h-.972v-6.422h.791l.158.879h.047c.199-.316.478-.56.838-.732a2.693 2.693 0 011.201-.264c.773 0 1.355.187 1.746.562.391.371.586.967.586 1.787V43h-.973zm9.421 0l-1.178-3.768c-.074-.23-.213-.754-.416-1.57h-.047a21.394 21.394 0 01-.41 1.582L123.881 43h-1.125l-1.752-6.422h1.02c.414 1.613.728 2.842.943 3.686.219.843.344 1.412.375 1.705h.047a16.255 16.255 0 01.457-1.705l1.178-3.686h1.055l1.148 3.686c.219.671.367 1.236.445 1.693h.047c.016-.14.057-.357.123-.65.07-.293.479-1.87 1.225-4.729h1.008L128.299 43h-1.154zm9.245 0l-.194-.914h-.046c-.321.402-.641.676-.961.82-.317.14-.713.211-1.19.211-.636 0-1.136-.164-1.5-.492-.359-.328-.539-.795-.539-1.4 0-1.297 1.037-1.977 3.111-2.04l1.09-.035v-.398c0-.504-.109-.875-.328-1.113-.215-.242-.56-.364-1.037-.364-.535 0-1.141.165-1.816.493l-.299-.745a4.58 4.58 0 011.037-.404 4.543 4.543 0 011.137-.146c.765 0 1.332.17 1.699.51.371.34.557.884.557 1.634V43h-.721zm-2.197-.685c.605 0 1.08-.167 1.423-.499.348-.332.522-.797.522-1.394v-.58l-.973.04c-.773.028-1.332.15-1.676.364-.339.211-.509.541-.509.99 0 .352.105.62.316.803.215.184.514.276.897.276zm-1.149-7.477c0-.203.051-.35.152-.44a.562.562 0 01.375-.134.57.57 0 01.381.134c.11.09.164.237.164.44 0 .195-.054.342-.164.44a.552.552 0 01-.381.14.548.548 0 01-.375-.14c-.101-.098-.152-.245-.152-.44zm2.233 0c0-.203.05-.35.152-.44a.558.558 0 01.375-.134c.144 0 .269.045.375.134.109.09.164.237.164.44 0 .195-.055.342-.164.44a.548.548 0 01-.375.14.544.544 0 01-.375-.14c-.102-.098-.152-.245-.152-.44zM141.293 43h-.973v-9.117h.973V43zm5.337-.685c.172 0 .338-.012.498-.036.16-.027.287-.054.381-.082v.744a1.716 1.716 0 01-.469.123 3.266 3.266 0 01-.551.053c-1.242 0-1.863-.654-1.863-1.963v-3.82h-.92v-.469l.92-.404.41-1.371h.562v1.488h1.864v.756h-1.864v3.78c0 .386.092.683.276.89.183.207.435.31.756.31zm6.081.802c-.95 0-1.7-.289-2.25-.867-.547-.578-.821-1.38-.821-2.408 0-1.035.254-1.858.762-2.467.512-.61 1.197-.914 2.057-.914.804 0 1.441.266 1.91.797.469.527.703 1.224.703 2.092v.615h-4.424c.02.754.209 1.326.568 1.717.364.39.873.586 1.53.586a5.17 5.17 0 002.05-.434v.867a4.946 4.946 0 01-.978.317 5.31 5.31 0 01-1.107.1zm-.264-5.842c-.516 0-.928.168-1.236.504-.305.336-.485.801-.54 1.395h3.358c0-.614-.137-1.082-.41-1.406-.274-.328-.664-.493-1.172-.493z" fill="#fff"/><defs><linearGradient id="paint0_linear" x1="23" y1="40.52" x2="23" y2="46" gradientUnits="userSpaceOnUse"><stop stop-color="#B29D79"/><stop offset="1" stop-color="#CEB893"/></linearGradient><linearGradient id="paint1_linear" x1="8.214" y1="34.5" x2="35.595" y2="2.738" gradientUnits="userSpaceOnUse"><stop stop-color="#B29D79"/><stop offset="1" stop-color="#CEB893"/></linearGradient><clipPath id="clip0"><path fill="#fff" d="M0 0h46v46H0z"/></clipPath><filter id="filter0_d" x="-8" y="-8" width="62" height="62" filterUnits="userSpaceOnUse" color-interpolation-filters="sRGB"><feFlood flood-opacity="0" result="BackgroundImageFix"/><feColorMatrix in="SourceAlpha" values="0 0 0 0 0 0 0 0 0 0 0 0 0 0 0 0 0 0 127 0"/><feOffset/><feGaussianBlur stdDeviation="4"/><feColorMatrix values="0 0 0 0 0.808333 0 0 0 0 0.722714 0 0 0 0 0.575938 0 0 0 0.1 0"/><feBlend in2="BackgroundImageFix" result="effect1_dropShadow"/><feBlend in="SourceGraphic" in2="effect1_dropShadow" result="shape"/></filter></defs></svg>