<svg width="16" height="16" fill="none" xmlns="http://www.w3.org/2000/svg"><g filter="url(#filter0_d)" clip-path="url(#clip0)"><path fill-rule="evenodd" clip-rule="evenodd" d="M13.333 2.667H2.667c-.47 0-.884.245-1.121.613a.75.75 0 01.217.106L8 7.75l6.236-4.365a.75.75 0 01.218-.106 1.335 1.335 0 00-1.12-.613zm1.334 2.248L8.43 9.281a.75.75 0 01-.86 0L1.333 4.915V12c0 .733.6 1.333 1.334 1.333h10.666c.734 0 1.334-.6 1.334-1.333V4.915z" fill="#CEB893"/></g><defs><clipPath id="clip0"><path fill="#fff" d="M0 0h16v16H0z"/></clipPath><filter id="filter0_d" x="-6.667" y="-5.333" width="29.333" height="26.667" filterUnits="userSpaceOnUse" color-interpolation-filters="sRGB"><feFlood flood-opacity="0" result="BackgroundImageFix"/><feColorMatrix in="SourceAlpha" values="0 0 0 0 0 0 0 0 0 0 0 0 0 0 0 0 0 0 127 0"/><feOffset/><feGaussianBlur stdDeviation="4"/><feColorMatrix values="0 0 0 0 0.808333 0 0 0 0 0.722714 0 0 0 0 0.575938 0 0 0 0.1 0"/><feBlend in2="BackgroundImageFix" result="effect1_dropShadow"/><feBlend in="SourceGraphic" in2="effect1_dropShadow" result="shape"/></filter></defs></svg>